<svg xmlns="http://www.w3.org/2000/svg" xmlns:xlink="http://www.w3.org/1999/xlink" viewBox="0 0 631.41 391.74"><defs><clipPath id="66da7079-2f16-4c36-bb05-00dd29faf38e"><circle cx="301.12" cy="194.2" r="175.45" fill="none"/></clipPath></defs><title>header</title><g id="d26ce1cf-a4b9-4a10-a69d-c97f40df9a24" data-name="Layer 2"><g id="7f7c16a3-6461-4768-bab8-0fcb77a20806" data-name="Layer 1"><circle cx="301.12" cy="194.2" r="175.45" fill="#8a346b"/><g clip-path="url(#66da7079-2f16-4c36-bb05-00dd29faf38e)"><path d="M108.57,135.89l-.93-.35C119.2,105.22,148.08,87,195.91,80A245.56,245.56,0,0,1,277.5,81.5c18,3.38,35.12,9.73,51.7,15.86,8.55,3.17,17.39,6.44,26.28,9.29A245.5,245.5,0,0,0,488,111l.24,1a246.43,246.43,0,0,1-133-4.32c-8.9-2.85-17.76-6.13-26.32-9.3-16.54-6.12-33.64-12.45-51.53-15.81a244.65,244.65,0,0,0-81.26-1.56C148.62,88,120,106,108.57,135.89Z" fill="#fff"/><path d="M97.29,193.15l-.89-.45c10.27-19.85,31.21-38.1,62.22-54.24a183.5,183.5,0,0,1,92.46-20.41c25.62,1.1,50.4,8.58,74.36,15.82,15.28,4.62,31.08,9.39,46.94,12.47A266.79,266.79,0,0,0,499.19,140l.29,1a267.89,267.89,0,0,1-127.29,6.37c-15.91-3.08-31.74-7.86-47-12.49-23.9-7.22-48.62-14.69-74.12-15.78a182.41,182.41,0,0,0-91.95,20.3C128.26,155.39,107.47,173.5,97.29,193.15Z" fill="#fff"/><path d="M394.34,88.6A217.93,217.93,0,0,1,344,82.68c-13.91-3.3-26.83-9.26-39.32-15-7.54-3.48-15.33-7.07-23.29-10.07a161.15,161.15,0,0,0-39-9.33c-4.37-.48-8.81-.56-13.1-.63-7.68-.12-15.63-.25-23.21-2.77-12.84-4.27-19.29-13.18-21-20.09l1-.25c1.69,6.66,7.94,15.25,20.4,19.39,7.43,2.47,14.95,2.6,22.91,2.72,4.31.08,8.78.15,13.18.64a162.06,162.06,0,0,1,39.25,9.39c8,3,15.81,6.61,23.36,10.09,12.44,5.74,25.32,11.68,39.13,15A216.37,216.37,0,0,0,415,86.61c10.39-1,20.77-9.78,23.15-19.58a114,114,0,0,0,2.31-15.45c.78-7.69,1.51-14.95,4.83-22.54l.91.4c-3.25,7.45-4,14.63-4.75,22.25a112,112,0,0,1-2.33,15.57c-2.47,10.19-13.25,19.31-24,20.35Q404.74,88.6,394.34,88.6Z" fill="#fff"/><path d="M121,228.56l-.76-.65a161.82,161.82,0,0,1,61.73-44.62,168.28,168.28,0,0,1,75.33-11.9c18.05,1.29,36,5.24,53.42,9.07,14,3.09,28.53,6.28,43,8.06,38.24,4.69,70.27,2.15,97.9-7.79a178.33,178.33,0,0,0,33-15.87l.52.85a179.34,179.34,0,0,1-33.16,16c-27.79,10-60,12.55-98.36,7.84-14.52-1.79-29.05-5-43.11-8.07-17.35-3.82-35.29-7.77-53.27-9.06a167.31,167.31,0,0,0-74.88,11.83A160.9,160.9,0,0,0,121,228.56Z" fill="#fff"/><path d="M150.82,314.07l-.73-.69c38.78-40.75,89.25-62.75,146-63.65,14.07-.22,28.57.62,42.6,1.43,26.5,1.53,53.9,3.11,80-2.29,25.23-5.22,44.81-18.13,65.48-43.19l.77.63c-20.83,25.25-40.58,38.27-66,43.53-26.28,5.44-53.75,3.85-80.31,2.31-14-.8-28.49-1.64-42.52-1.42C239.63,251.62,189.4,273.52,150.82,314.07Z" fill="#fff"/></g><rect y="52.17" width="246.86" height="167.11" rx="19.23" ry="19.23" fill="#fff"/><path d="M24.19,85.28l1-1.29a3.34,3.34,0,0,0,2.51,1.29c1.07,0,1.62-.47,1.62-1.19s-.64-1.13-1.88-1.57c-1.49-.52-3-1.19-3-3a2.92,2.92,0,0,1,3.1-2.72A5.17,5.17,0,0,1,30.86,78l-1,1.31a3.73,3.73,0,0,0-2.25-1,1.22,1.22,0,0,0-1.37,1.14c0,.72.64,1,1.83,1.42,1.68.66,3,1.12,3,3,0,2-1.8,2.94-3.38,2.94A4.86,4.86,0,0,1,24.19,85.28Z"/><path d="M32.76,80H34.3v.79h0a2.71,2.71,0,0,1,2.12-.89,3.27,3.27,0,0,1,3.25,3.48,3.21,3.21,0,0,1-3.26,3.45,2.59,2.59,0,0,1-2.11-.94l0,0v3.54H32.76Zm5.37,3.4a2,2,0,0,0-1.94-2.11,2,2,0,0,0-2,2.11,1.93,1.93,0,0,0,2,2A1.9,1.9,0,0,0,38.13,83.39Z"/><path d="M47.42,83.86H42.51a1.86,1.86,0,0,0,2,1.55,2.11,2.11,0,0,0,1.7-.78l1.07.92a3.6,3.6,0,0,1-6.34-2.2,3.27,3.27,0,0,1,3.38-3.46,3.14,3.14,0,0,1,3.17,3.37C47.46,83.51,47.43,83.75,47.42,83.86Zm-4.88-1.22H45.9a1.6,1.6,0,0,0-1.62-1.36A1.7,1.7,0,0,0,42.54,82.64Z"/><path d="M49.05,80H50.6v.92h0a2.9,2.9,0,0,1,2.25-1c1.47,0,2.47.84,2.47,2.86v4H53.79V83.15c0-1.41-.54-1.87-1.46-1.87s-1.73.73-1.73,2v3.38H49.05Z"/><path d="M56.8,83.37a3.29,3.29,0,0,1,3.26-3.48,2.71,2.71,0,0,1,2.15.92h0V76.57h1.53V86.71H62.28V85.8h0a2.61,2.61,0,0,1-2.19,1A3.23,3.23,0,0,1,56.8,83.37Zm5.48,0a2,2,0,0,0-2-2.11,2,2,0,0,0-1.94,2.11,1.9,1.9,0,0,0,1.92,2A1.93,1.93,0,0,0,62.28,83.39Z"/><path d="M69,85.28l1-1.29a3.33,3.33,0,0,0,2.51,1.29c1.07,0,1.62-.47,1.62-1.19s-.65-1.13-1.89-1.57c-1.48-.52-3-1.19-3-3a2.92,2.92,0,0,1,3.1-2.72A5.17,5.17,0,0,1,75.69,78l-1,1.31a3.75,3.75,0,0,0-2.25-1,1.23,1.23,0,0,0-1.38,1.14c0,.72.65,1,1.84,1.42,1.68.66,3,1.12,3,3,0,2-1.81,2.94-3.38,2.94A4.86,4.86,0,0,1,69,85.28Z"/><path d="M77.45,84.08V80H79v3.67c0,1.34.42,1.75,1.34,1.75s1.72-.75,1.72-2.2V80h1.54v6.72H82.05v-.84l0,0a2.61,2.61,0,0,1-2,1C78.48,86.82,77.45,86.07,77.45,84.08Z"/><path d="M85.55,80h1.54v.92h0a2.76,2.76,0,0,1,2.1-1,2.11,2.11,0,0,1,2,1.11h0a2.94,2.94,0,0,1,2.41-1.11c1.47,0,2.36.92,2.36,2.93v3.89H94.46v-3.5c0-1.21-.4-1.93-1.31-1.93s-1.57.76-1.57,2.08v3.35H90v-3.5c0-1.21-.43-1.93-1.34-1.93s-1.61.76-1.61,2.08v3.35H85.55Z"/><path d="M97.9,80h1.54v.92h0a2.74,2.74,0,0,1,2.09-1,2.11,2.11,0,0,1,2,1.11h0A3,3,0,0,1,106,79.89c1.48,0,2.36.92,2.36,2.93v3.89h-1.54v-3.5c0-1.21-.4-1.93-1.31-1.93s-1.57.76-1.57,2.08v3.35h-1.55v-3.5c0-1.21-.43-1.93-1.33-1.93s-1.62.76-1.62,2.08v3.35H97.9Z"/><path d="M109.84,83.37a3.27,3.27,0,0,1,3.24-3.48,2.57,2.57,0,0,1,2.08.92h0V80h1.54v6.72h-1.47v-.88l0,0a2.52,2.52,0,0,1-2.14,1A3.21,3.21,0,0,1,109.84,83.37Zm5.42,0a2,2,0,0,0-1.92-2.11,1.94,1.94,0,0,0-1.93,2.11,1.89,1.89,0,0,0,1.93,2A1.92,1.92,0,0,0,115.26,83.39Z"/><path d="M118.67,80h1.54v1h0a2.59,2.59,0,0,1,2.08-1.1h.19v1.72l-.47,0a1.78,1.78,0,0,0-1.83,2v3.18h-1.54Z"/><path d="M125.8,86.34,123.05,80h1.65l1.85,4.5h0L128.3,80h1.58l-3.69,9.45h-1.6Z"/><path d="M26.8,185H226.57V153.65a219,219,0,0,1-25.68,17.78c-4.75,2.81-9.81,5.51-15.32,5.86C174.36,178,165,169,158.31,160c-2.34-3.15-4.72-6.52-8.25-8.24-6.63-3.22-14.69.69-19.69,6.1s-8.3,12.28-13.59,17.41-14,8.15-20,3.89C93.74,177,92,173.48,90,170.38s-5.15-6.09-8.88-6c-3.26,0-6,2.36-9,3.62-6.68,2.79-14.64,0-20-4.92s-8.51-11.65-11.6-18.2l-15.2-32.25Z" fill="#f7fffb"/><path d="M103.64,181.54a12.31,12.31,0,0,1-7.13-2.09c-2.44-1.72-4-4.28-5.58-6.75-.46-.73-.91-1.46-1.39-2.17-1.81-2.68-4.74-5.83-8.47-5.82-2.08,0-3.93,1-5.89,2.12-.94.51-1.9,1-2.89,1.46-7.2,3-15.47-.36-20.49-5-5.45-5.06-8.77-12.12-11.71-18.35L24.88,112.67a.5.5,0,0,1,.91-.43L41,144.5c2.9,6.14,6.19,13.11,11.49,18,4.78,4.44,12.64,7.65,19.42,4.82A29.18,29.18,0,0,0,74.69,166c2-1.08,4-2.21,6.37-2.24h.1c4.12,0,7.28,3.4,9.21,6.27.48.71.94,1.45,1.41,2.19,1.49,2.39,3,4.86,5.3,6.46,5.79,4.09,14.29,1.07,19.36-3.84a61.71,61.71,0,0,0,7.34-9.26A74.47,74.47,0,0,1,130,157.4c5.1-5.52,13.35-9.57,20.28-6.21,3.46,1.68,5.8,4.84,8.06,7.89l.37.5c8.86,11.89,17.87,17.63,26.83,17.09,5.49-.35,10.67-3.17,15.09-5.79a72,72,0,0,0,12.59-9.29c1.76-1.53,3.75-3.26,6.37-5.37a.5.5,0,0,1,.7.08.49.49,0,0,1-.07.7c-2.61,2.09-4.59,3.82-6.34,5.35a74.1,74.1,0,0,1-12.74,9.39c-4.52,2.68-9.82,5.56-15.54,5.92-9.31.58-18.62-5.3-27.69-17.49l-.37-.5c-2.19-2.95-4.46-6-7.7-7.58-6.46-3.14-14.26.74-19.11,6a72,72,0,0,0-6.12,8,62.18,62.18,0,0,1-7.48,9.41C112.75,179.76,107.87,181.54,103.64,181.54Z" fill="#00a783"/><circle cx="39.52" cy="143.37" r="2.48" fill="#fff"/><path d="M39.52,146.23a2.86,2.86,0,1,1,2.85-2.86A2.86,2.86,0,0,1,39.52,146.23Zm0-5a2.11,2.11,0,1,0,2.1,2.1A2.11,2.11,0,0,0,39.52,141.27Z" fill="#00a783"/><circle cx="62.89" cy="168.36" r="2.48" fill="#fff"/><path d="M62.89,171.22a2.86,2.86,0,1,1,2.85-2.86A2.86,2.86,0,0,1,62.89,171.22Zm0-5a2.11,2.11,0,1,0,2.1,2.1A2.1,2.1,0,0,0,62.89,166.26Z" fill="#00a783"/><circle cx="89.95" cy="170.26" r="2.48" fill="#fff"/><path d="M90,173.11a2.86,2.86,0,1,1,2.86-2.85A2.86,2.86,0,0,1,90,173.11Zm0-5a2.11,2.11,0,1,0,2.11,2.11A2.1,2.1,0,0,0,90,168.15Z" fill="#00a783"/><circle cx="120.95" cy="170.84" r="2.48" fill="#fff"/><path d="M121,173.7a2.86,2.86,0,1,1,2.86-2.86A2.86,2.86,0,0,1,121,173.7Zm0-5a2.11,2.11,0,1,0,2.11,2.1A2.1,2.1,0,0,0,121,168.74Z" fill="#00a783"/><circle cx="143.89" cy="151.28" r="2.48" fill="#fff"/><path d="M143.89,154.13a2.86,2.86,0,1,1,2.85-2.85A2.86,2.86,0,0,1,143.89,154.13Zm0-5a2.11,2.11,0,1,0,2.1,2.11A2.12,2.12,0,0,0,143.89,149.17Z" fill="#00a783"/><circle cx="169.3" cy="170.84" r="2.48" fill="#fff"/><path d="M169.3,173.7a2.86,2.86,0,1,1,2.86-2.86A2.86,2.86,0,0,1,169.3,173.7Zm0-5a2.11,2.11,0,1,0,2.11,2.1A2.1,2.1,0,0,0,169.3,168.74Z" fill="#00a783"/><circle cx="208.75" cy="165.88" r="2.48" fill="#fff"/><path d="M208.75,168.74a2.86,2.86,0,1,1,2.85-2.86A2.86,2.86,0,0,1,208.75,168.74Zm0-5a2.11,2.11,0,1,0,2.1,2.1A2.11,2.11,0,0,0,208.75,163.78Z" fill="#00a783"/><circle cx="25.34" cy="112.46" r="2.48" fill="#fff"/><path d="M25.34,115.31a2.86,2.86,0,1,1,2.85-2.85A2.86,2.86,0,0,1,25.34,115.31Zm0-5a2.11,2.11,0,1,0,2.1,2.11A2.12,2.12,0,0,0,25.34,110.35Z" fill="#00a783"/><path d="M28,197.93a1.68,1.68,0,0,1-.74-.14v-.53a1.91,1.91,0,0,0,.7.15c.63,0,.86-.43.86-1V192.6h.64v3.84A1.33,1.33,0,0,1,28,197.93Z"/><path d="M31.41,196.42l-.49,1.44h-.6l1.79-5.26h.83l1.81,5.26h-.64l-.48-1.44Zm.17-.51h1.88l-.94-2.78Z"/><path d="M36.28,193.35v4.51h-.61V192.6h.83L39.14,197V192.6h.61v5.26H39Z"/><path d="M67.05,195.51v2.35h-.64V192.6h3.22v.53H67.05V195h2v.52Z"/><path d="M73.91,197.34v.52H70.57V192.6h3.21v.53H71.21v1.78h2.1v.53h-2.1v1.9Z"/><path d="M76.82,197.86H74.87V192.6H76.6c1,0,1.69.31,1.69,1.39a1.07,1.07,0,0,1-.79,1.11,1.17,1.17,0,0,1,1,1.29C78.55,197.47,77.76,197.86,76.82,197.86Zm-1.32-3h1.1c.69,0,1.07-.21,1.07-1s-.49-.84-1.08-.84H75.5Zm0,2.46h1.31a1.33,1.33,0,0,0,.82-.22.92.92,0,0,0,.3-.79c0-.77-.54-.95-1.21-.95H75.5Z"/><path d="M100.74,193.43v4.43h-.59V192.6H101l1.69,4.17,1.66-4.17h.88v5.26h-.64v-4.43l-1.78,4.43h-.27Z"/><path d="M107.29,196.42l-.49,1.44h-.6L108,192.6h.84l1.8,5.26H110l-.49-1.44Zm.17-.51h1.88l-.94-2.78Z"/><path d="M112.19,195.58v2.28h-.64V192.6h1.73c1,0,1.84.39,1.84,1.5a1.43,1.43,0,0,1-1.3,1.43l1.61,2.33h-.72l-1.56-2.28Zm0-.51h1.13c.68,0,1.16-.27,1.16-1s-.5-.95-1.16-.95h-1.13Z"/><path d="M134.59,196.42l-.48,1.44h-.6l1.78-5.26h.84l1.8,5.26h-.63l-.48-1.44Zm.17-.51h1.89l-1-2.78Z"/><path d="M139.5,195.72v2.14h-.64V192.6h1.64c1,0,1.84.45,1.84,1.57a1.49,1.49,0,0,1-.21.84,2.35,2.35,0,0,1-2.09.72h-.54Zm0-.5h1c.74,0,1.16-.31,1.16-1.08s-.45-1-1.16-1h-1Z"/><path d="M143.92,195.58v2.28h-.64V192.6H145c1,0,1.84.39,1.84,1.5a1.42,1.42,0,0,1-1.3,1.43l1.61,2.33h-.71l-1.57-2.28Zm0-.51h1.13c.67,0,1.15-.27,1.15-1s-.49-.95-1.15-.95h-1.13Z"/><path d="M168.24,193.43v4.43h-.59V192.6h.89l1.69,4.17,1.66-4.17h.88v5.26h-.64v-4.43l-1.78,4.43h-.27Z"/><path d="M174.78,196.42l-.48,1.44h-.6l1.78-5.26h.84l1.8,5.26h-.63l-.48-1.44Zm.17-.51h1.89l-.94-2.78Z"/><path d="M180.66,195.61v2.25H180V195.6l-1.72-3H179l1.34,2.48,1.29-2.48h.63Z"/><path d="M201.75,197.93a1.64,1.64,0,0,1-.73-.14v-.53a1.83,1.83,0,0,0,.7.15c.62,0,.85-.43.85-1V192.6h.64v3.84A1.33,1.33,0,0,1,201.75,197.93Z"/><path d="M206.33,197.93a1.76,1.76,0,0,1-1.89-2V192.6h.64v3.27c0,.91.24,1.53,1.27,1.53s1.33-.66,1.33-1.63V192.6h.64v3.26A1.83,1.83,0,0,1,206.33,197.93Z"/><path d="M210.21,193.35v4.51h-.61V192.6h.83l2.64,4.35V192.6h.61v5.26h-.74Z"/><g opacity="0.3"><path d="M246.86,161.83v38.22a19.23,19.23,0,0,1-19.23,19.23H168.94C190.08,211.84,190,173.32,246.86,161.83Z" fill="#c8d7f1"/></g><polygon points="255.85 168.51 296.6 162.11 297.83 131.9 342.84 128 351.25 164.29 368.61 178.82 339.24 216.67 239.12 214.29 239.12 179.72 242.1 172.34 255.85 168.51" fill="#e3936e"/><path d="M458.87,234.13a27.23,27.23,0,0,1-1.9,9.2,33.69,33.69,0,0,1-6.77,10.33c-.54.59-1.08,1.16-1.65,1.71-2.61,2.6-5.48,5-8.38,7.44h0c-5.26,4.39-10.57,8.81-14.34,14.39a42.65,42.65,0,0,0-6.55,17.15,67.77,67.77,0,0,0-.79,6.74c-.18,2.36-.26,4.76-.28,7.18-.07,6.11.23,12.37.26,18.6h0c0,3.46,0,6.91-.31,10.32,0,.37,0,.73-.08,1.08a64.27,64.27,0,0,1-2,11.76l-9.67-3.48a174.42,174.42,0,0,1-84,27.73h0q-12.62.19-25.23-.2a173.88,173.88,0,0,1-65.59-18.5,13.7,13.7,0,0,1-.28-1.42c-1-7.47.73-8.57-1-16.64-.18-.79-.37-1.54-.59-2.23-2.48-8.08-7.56-10.12-9.61-19a29.77,29.77,0,0,1-.4-10.93,37.42,37.42,0,0,1,.9-4.33h0c-1.32,2.88-5.24,2.59-8.44,1.52-.41-.13-.85-.29-1.3-.48l-5-2.06c-12.6-5.17-31.61-12.52-34.47-13.72.88-1.1,9.41-37.15,16.13-66a62,62,0,0,1,43.35-45.52c12.93-3.69,33.12-8.52,33.12-8.52a52.3,52.3,0,0,0,23.67,29.45C301.82,203.84,321,204.2,337,201c11.4-2.27,18.37-6.52,26.73-10.6,1.24-.61,2.46-1.26,3.66-2,.93-.55,1.86-1.13,2.75-1.75h0a37.86,37.86,0,0,0,13.29-15.18c16.18,4.47,33.86,11.65,47.81,21,8.57,5.73,16.72,12.47,22,21.28a42.5,42.5,0,0,1,2.32,4.44v0A35.74,35.74,0,0,1,458.87,234.13Z" fill="#fff"/><g opacity="0.5"><path d="M290.2,137.81l-.9,5.43s17.49,14.2,53.54,6.47l12.35,26.85,18.29-2.07L343.16,132.1Z" fill="#8a346b"/></g><path d="M282.86,32.82c3.76-7.31,10.79-14.19,17.69-18.66S316.42,7.93,324.06,11a8.69,8.69,0,0,1,3,1.82c1.66,1.64,2.1,4.17,1.91,6.5-.76,9.22-9.53,15.51-17.8,19.69s-30.13,38-30.13,38S276,66.72,276.23,64C277.12,53.52,278,42.19,282.86,32.82Z" fill="#281722"/><polygon points="405.33 304.8 469.41 295.84 458.59 228.35 405.33 269.52 405.33 304.8" fill="#fff"/><path d="M288.77,41.15c-5.18,9.68-4.31,17.74-9.17,27.58-3.64,7.36-11.08,9-9.33,30.09.77,9.3,3.09,16.06,5.79,25,.86,2.85,2.86,10.82,5,12.84,2,1.89,8.74,4.17,11.5,4.33,20.38,1.24,52-3.54,56.21-7,10-8.25,19.4-21,21-33.87,1.51-12.28,2.89-21.67,3.26-34,.18-6.21.34-12.56-1.63-18.45-2.68-8-9.1-14.32-16.14-19C334.66,14.83,302.3,15.84,288.77,41.15Z" fill="#e3936e"/><path d="M347.16,370.94s2.5-14.51,5.33-32.8c.43-2.79-68.12-39.48-67.68-42.42,3.75-25.07,65.11-9.06,75.32-28.59,7.55-14.42,57.7-19.56,57.7-19.56l-.3,44.61,5.7,40.95v4.07Q385.19,362.51,347.16,370.94Z" fill="#c8d7f1"/><path d="M294.05,101.16l-3-3.3a1.8,1.8,0,0,1,.17-3c4.65-4.06,9.49-8,14.39-11.77l.61.79c-4.88,3.74-9.71,7.68-14.34,11.73-.28.25-.56.51-.57.77s.23.55.48.83l3,3.3Z" fill="#1b1a1f"/><path d="M314.17,94.24a2.67,2.67,0,0,1,1.5-.84,5.69,5.69,0,0,1,1.95.1,14.33,14.33,0,0,1,7.57,4,4.19,4.19,0,0,1,.91,1.4,2.48,2.48,0,0,1,.07,1.17,2.88,2.88,0,0,1-1.32,2.28c-1.24.72-3.41.59-5.4,0C313.45,100.64,311.47,97,314.17,94.24Z" fill="#d97d4e"/><path d="M279.66,82.38a9,9,0,0,1,3.56,1.05,20.27,20.27,0,0,1,2.57,1.49,6.92,6.92,0,0,1,1.5,1.31,2.6,2.6,0,0,1,.57,1.58,2.76,2.76,0,0,1-2.41,2.6,8.75,8.75,0,0,1-5.43-.82C275.56,87.46,275,82.31,279.66,82.38Z" fill="#d97d4e"/><path d="M300.64,115.59a30.52,30.52,0,0,1-16.31-4.72l.54-.84a29.41,29.41,0,0,0,20.1,4.23l.15,1A29.19,29.19,0,0,1,300.64,115.59Z" fill="#1b1a1f"/><path d="M332.66,87.26a15.36,15.36,0,0,0-12.08-5.48l0-1a16.33,16.33,0,0,1,12.87,5.82Z" fill="#1b1a1f"/><path d="M296.94,73.68a15.35,15.35,0,0,0-12.48-4.47l-.12-1A16.29,16.29,0,0,1,297.64,73Z" fill="#1b1a1f"/><path d="M401,134.33c2.47,15.86,24.16,13.16,39.06,37.19,1.82,2.93,9.25,17.84,5.12,43.55-.91,5.65-5.61,56.71-1,60.65l-20.54.12q-2.93-14.13-5.86-28.27a59.82,59.82,0,0,0,.61,28.52A32.39,32.39,0,0,1,391,259.25a15.78,15.78,0,0,0,6.55,14.6c-13,1.42-27.89,2.27-37.43-6.72-8.44-7.94-9.6-21-7.93-32.48s5.59-22.73,5.2-34.31c-.48-14.6-7.69-28-11.41-42.15-7.47-28.31-.72-58.12,1.68-87.29,1-12.07-13.46-19.6-17.28-31.08-6.56-19.74-30.81-12.94-30.81-12.94s1.12-20,27.67-25.45A68.19,68.19,0,0,1,344.41.08a80,80,0,0,1,26.94,5.6c7,2.76,15.76,6.2,22.87,13.67,2.39,2.5,7.26,8.26,13.64,39.46,4.7,23,7.05,34.45,4.88,44.83C408.86,122.1,399.41,123.82,401,134.33Z" fill="#281722"/><path d="M391.08,232.67l-1,0c.77-16.48,1.63-35.16-6.18-51.07a102.09,102.09,0,0,0-5.89-10c-1.76-2.75-3.57-5.6-5.13-8.54-8.83-16.63-7.57-33.42-6.24-51.19.84-11.21,1.71-22.81-.06-34.66l1-.14c1.79,12,.91,23.61.07,34.87-1.32,17.63-2.57,34.27,6.12,50.65,1.54,2.91,3.35,5.74,5.1,8.48a104.39,104.39,0,0,1,5.94,10.12C392.72,197.25,391.85,216.07,391.08,232.67Z" fill="#8a346b"/><path d="M410.25,214.3l-1-.17c0-.2,3.33-19.24,0-32.15-1.61-6.27-7.39-13-13.51-20-6.41-7.43-13-15.1-14.62-22.43l1-.22c1.53,7.09,8.07,14.67,14.4,22s12.05,14,13.72,20.46C413.62,194.86,410.28,214.11,410.25,214.3Z" fill="#8a346b"/><path d="M212.53,298.31s11.17-22.46,12-44.93,3.68-27.77,3.68-27.77l3,36.32-3.82,40.51Z" fill="#c8d7f1"/><path d="M173.32,287.24c-5,22.9-5.92,30.29-9.34,53.47-1,6.59.83,29.84,4.06,35.66,3,5.34,15.91,6.52,23.52,4.5,10.81-2.87,20.32-9.57,27.92-17.78s28.08-37.69,38.11-50.74c0,0,8.47-1.61,10.8-2a88.72,88.72,0,0,0,25.24-7.68c3.32-1.6,6.54-6.51,7.38-15.17.77-7.93,1.05-15.75.69-19.23,0,0-10.76,1.68-19.51,0,8.25-1.06,13.56-1.84,21.49-3.23,2.29-.4,8.11-2.92,7.65-7.54-.15-1.5-5.09-1.69-5.87-1.68l-25.1.35a50.59,50.59,0,0,0-11,1,17,17,0,0,0-9.4,5.46c-5.19,5.54-21,18.73-25.58,23.41-3.31,3.36-8.69,8.52-14.75,14.27l-3.38-.93Z" fill="#e3936e"/><path d="M361.25,308.44l-8.29-.3-40.28-1.48a7.82,7.82,0,0,1-7.19-5.56c-4.12-13.79-15.2-50.72-20.83-68.18-.12-.4-.25-.78-.37-1.15a.14.14,0,0,1,0-.07c-.22-.69-.44-1.35-.64-2a5.93,5.93,0,0,1-.22-3.15c.49-2.19,2.09-2.38,3.54-2.43,15.92-.48,29.17-.14,45.75-.63a6,6,0,0,1,4.47,1.3,6.66,6.66,0,0,1,1.45,3c3.81,13.63,15,52.81,15,52.81C357.24,291.94,361.25,308.44,361.25,308.44Z" fill="#db5252"/><g opacity="0.5"><path d="M310.45,254.54H300.3a3.16,3.16,0,0,1-2.82-2.19l-5-17.24a1.58,1.58,0,0,1,1.54-2.2h10.15a3.17,3.17,0,0,1,2.82,2.2l5,17.24A1.58,1.58,0,0,1,310.45,254.54Z" fill="#8a346b"/></g><g opacity="0.1"><path d="M354.46,308.19l-1.5-.05-.1-9.8S338,239.2,336.33,232.92a7.87,7.87,0,0,0-7.4-6.24s-40.09-.42-43.17.56c-2.07.66-1.85,3-1.49,4.46-.22-.69-.44-1.35-.64-2a5.93,5.93,0,0,1-.22-3.15c.49-2.19,2.09-2.38,3.54-2.43,15.92-.48,29.17-.14,45.75-.63a6,6,0,0,1,4.47,1.3,6.66,6.66,0,0,1,1.45,3c3.81,13.63,15,52.81,15,52.81,2.17,6.72,4.48,15.3,6,21.13A5.09,5.09,0,0,1,354.46,308.19Z" fill="#fff"/></g><path d="M417.53,292.18c1.57,12.38,1.62,12,3.37,25.79-16.75-6.54-32.91-13-54.78-27.34l-7.71-25.32s-8.07,1.08-7,15.77l-25.52-13.6-27.22-14.84s-4,3,2.1,9.61c3.49,3.76,15.82,14.48,15.82,14.48l-11.74-6.39c1,16.52,9.87,30.53,18.89,39.23,0,0,30.76,14.12,34.87,16.87,25,16.74,50.07,33.79,71.36,45.63,16.72,10.9,51.95,17.67,47.53-26.86-2.43-24.61-5.81-35.82-8.09-49.37,0,0,0-6.49-19.75-7.13C426.56,288,417.53,292.18,417.53,292.18Z" fill="#e3936e"/><path d="M284.47,87.15a15.11,15.11,0,0,1-4.24-.6c-8.65-2.5-11.19-11.39-11.46-12.39-.11-.43-2.63-10.54,4.76-17.31a16.8,16.8,0,0,1,18.7-2.77c9.5,4.72,9.13,16.33,9.12,16.45-.08,2-.85,9.1-7.13,13.53A17.77,17.77,0,0,1,284.47,87.15ZM285,53.4a16,16,0,0,0-10.78,4.19c-6.95,6.37-4.56,15.91-4.46,16.31.25.95,2.65,9.34,10.76,11.69,6.64,1.92,12.12-1.62,13.15-2.35,5.9-4.17,6.62-10.81,6.7-12.75h0c0-.11.36-11.08-8.57-15.51A15.17,15.17,0,0,0,285,53.4Z" fill="#1b1a1f"/><path d="M327.35,102.67a14.93,14.93,0,0,1-3-.3,17,17,0,0,1-12.63-12.15,17.26,17.26,0,0,1,4.76-17.32,16.82,16.82,0,0,1,18.7-2.77c6.79,3.37,9.48,10.7,9.12,16.46a17.63,17.63,0,0,1-5.88,11.88A18,18,0,0,1,327.35,102.67Zm.59-33.22a16,16,0,0,0-10.78,4.19,16.24,16.24,0,0,0-4.46,16.3,16,16,0,0,0,11.86,11.45c6.9,1.39,12.22-2.82,13.21-3.68a16.78,16.78,0,0,0,5.54-11.18h0c.34-5.44-2.18-12.33-8.57-15.5A15.17,15.17,0,0,0,327.94,69.45Z" fill="#1b1a1f"/><rect x="344.71" y="86.25" width="1" height="3.93" transform="translate(215.25 419.97) rotate(-82.94)" fill="#1b1a1f"/><path d="M312.41,79.26a13,13,0,0,0-6.53-4.2,10.46,10.46,0,0,0-5.07-.35l-.21-1a11.31,11.31,0,0,1,5.56.36,13.93,13.93,0,0,1,7.06,4.57Z" fill="#1b1a1f"/><g opacity="0.5"><path d="M219.63,300.29l-17.28,15s10.65-12.69,10.18-17Z" fill="#8a346b"/></g><g opacity="0.5"><polygon points="420.9 317.97 432.61 322.87 428.64 289.58 417.53 292.18 420.9 317.97" fill="#8a346b"/></g><rect x="410.76" y="167.4" width="189" height="224.35" rx="14.45" ry="14.45" fill="#fff"/><path d="M433.93,197.63a4.94,4.94,0,1,1,4.95,5A4.79,4.79,0,0,1,433.93,197.63Zm8.15,0a3.22,3.22,0,1,0-3.2,3.44A3.24,3.24,0,0,0,442.08,197.63Z"/><path d="M444.84,195.8h1.65l1.75,4.79h0L450,195.8h1.64L449,202.52H447.5Z"/><path d="M458.62,199.67h-4.91a1.86,1.86,0,0,0,2,1.56,2.11,2.11,0,0,0,1.7-.79l1.07.92a3.6,3.6,0,0,1-6.34-2.2,3.27,3.27,0,0,1,3.38-3.46,3.14,3.14,0,0,1,3.17,3.38C458.66,199.32,458.63,199.56,458.62,199.67Zm-4.88-1.21h3.36a1.6,1.6,0,0,0-1.62-1.37A1.7,1.7,0,0,0,453.74,198.46Z"/><path d="M460.25,195.8h1.55v1h0a2.6,2.6,0,0,1,2.08-1.1h.2v1.72l-.47,0a1.79,1.79,0,0,0-1.83,2v3.18h-1.55Z"/><path d="M464.77,199.19A3.27,3.27,0,0,1,468,195.7a2.6,2.6,0,0,1,2.08.92h0v-.81h1.55v6.72h-1.48v-.88h0a2.55,2.55,0,0,1-2.14,1A3.2,3.2,0,0,1,464.77,199.19Zm5.41,0a2,2,0,0,0-1.91-2.11,1.94,1.94,0,0,0-1.93,2.11,1.92,1.92,0,1,0,3.84,0Z"/><path d="M473.69,192.38h1.55v10.14h-1.55Z"/><path d="M477.44,192.38H479v10.14h-1.54Z"/><path d="M484.35,201.09l1-1.28a3.36,3.36,0,0,0,2.51,1.28c1.07,0,1.62-.47,1.62-1.19s-.64-1.13-1.88-1.57c-1.49-.52-3-1.18-3-3a2.93,2.93,0,0,1,3.1-2.73,5.12,5.12,0,0,1,3.24,1.2l-1,1.3a3.75,3.75,0,0,0-2.25-1,1.22,1.22,0,0,0-1.37,1.14c0,.72.64,1,1.83,1.42,1.68.66,3,1.12,3,3s-1.81,2.93-3.38,2.93A4.86,4.86,0,0,1,484.35,201.09Z"/><path d="M492.78,199.89V195.8h1.54v3.68c0,1.33.42,1.75,1.34,1.75s1.72-.76,1.72-2.21V195.8h1.55v6.72h-1.55v-.84h0a2.67,2.67,0,0,1-2.06,1C493.81,202.63,492.78,201.89,492.78,199.89Z"/><path d="M500.88,195.8h1.54v.92h0a2.74,2.74,0,0,1,2.09-1,2.1,2.1,0,0,1,2,1.12h0A3,3,0,0,1,509,195.7c1.47,0,2.36.92,2.36,2.93v3.89h-1.55V199c0-1.21-.4-1.93-1.31-1.93s-1.57.76-1.57,2.08v3.35h-1.54V199c0-1.21-.43-1.93-1.34-1.93s-1.61.76-1.61,2.08v3.35h-1.54Z"/><path d="M513.23,195.8h1.55v.92h0a2.74,2.74,0,0,1,2.09-1,2.12,2.12,0,0,1,2,1.12h0a3,3,0,0,1,2.41-1.12c1.48,0,2.36.92,2.36,2.93v3.89h-1.54V199c0-1.21-.4-1.93-1.31-1.93s-1.57.76-1.57,2.08v3.35h-1.55V199c0-1.21-.42-1.93-1.33-1.93s-1.61.76-1.61,2.08v3.35h-1.55Z"/><path d="M525.17,199.19a3.27,3.27,0,0,1,3.24-3.49,2.6,2.6,0,0,1,2.08.92h0v-.81h1.54v6.72h-1.47v-.88h0a2.54,2.54,0,0,1-2.14,1A3.2,3.2,0,0,1,525.17,199.19Zm5.42,0a2,2,0,0,0-1.92-2.11,1.94,1.94,0,0,0-1.93,2.11,1.9,1.9,0,0,0,1.93,2A1.93,1.93,0,0,0,530.59,199.2Z"/><path d="M534,195.8h1.54v1h0a2.6,2.6,0,0,1,2.08-1.1h.2v1.72l-.47,0a1.79,1.79,0,0,0-1.84,2v3.18H534Z"/><path d="M541.14,202.15l-2.76-6.35H540l1.85,4.5h0l1.72-4.5h1.58l-3.69,9.45h-1.6Z"/><circle cx="444.36" cy="234.72" r="11.18" fill="#ffecdf"/><circle cx="444.36" cy="276.53" r="11.18" fill="#e4ebfe"/><circle cx="444.36" cy="360.57" r="11.18" fill="#e1f8f0"/><path d="M467.49,223.89v6.78h-.92v-6.78h-2.19v-.75h5.3v.75Z"/><path d="M472.78,230.77a2.85,2.85,0,1,1,2.75-2.81A2.7,2.7,0,0,1,472.78,230.77Zm0-.73c1.25,0,1.83-1,1.83-2.15a1.87,1.87,0,0,0-1.83-2.09c-1.29,0-1.83,1-1.83,2.17A1.83,1.83,0,0,0,472.79,230Z"/><path d="M478.55,230.75a1.32,1.32,0,0,1-1.48-1.46V225.9h-.79v-.73h.79v-1l.87-.37v1.41h1.29v.73h-1.29v3.31c0,.48.17.8.69.8a2.06,2.06,0,0,0,.67-.12v.74A2.45,2.45,0,0,1,478.55,230.75Z"/><path d="M482,230.77a1.63,1.63,0,0,1-1.83-1.62c0-1.76,2.32-1.71,3.55-1.71,0-1-.19-1.64-1.3-1.64a1.45,1.45,0,0,0-1.38,1l-.74-.33a2.25,2.25,0,0,1,2.2-1.36,1.93,1.93,0,0,1,2.09,2v3.61h-.87V230A2.15,2.15,0,0,1,482,230.77Zm.09-.7a1.49,1.49,0,0,0,1.63-1.32v-.69H483c-.73,0-1.92.13-1.92,1.09C481.05,229.82,481.47,230.07,482.1,230.07Z"/><path d="M487.22,222.33v8.34h-.89v-7.95Z"/><path d="M495.88,229.92v.75h-4.79v-7.53h4.6v.75H492v2.56h3v.75h-3v2.72Z"/><path d="M499.08,228.45l-1.52,2.22h-.94l2-2.83-1.84-2.67h1l1.35,2,1.34-2h.94l-1.82,2.61,2,2.89h-1Z"/><path d="M503.64,229.77v2.82h-.87v-7.42h.87v.92a2.43,2.43,0,0,1,2-1c1.67,0,2.5,1.29,2.5,2.85a2.57,2.57,0,0,1-2.5,2.85A2.25,2.25,0,0,1,503.64,229.77Zm1.83.27c1.32,0,1.74-1,1.74-2.16s-.57-2.08-1.75-2.08-1.85,1-1.85,2.17A1.83,1.83,0,0,0,505.47,230Z"/><path d="M511.72,230.77a2.86,2.86,0,0,1-.09-5.7c1.82,0,2.48,1.33,2.48,3v.06H510a1.73,1.73,0,0,0,1.77,1.95,1.69,1.69,0,0,0,1.48-1l.8.35A2.46,2.46,0,0,1,511.72,230.77ZM510,227.39h3.22a1.47,1.47,0,0,0-1.58-1.59A1.66,1.66,0,0,0,510,227.39Z"/><path d="M516.3,227.33v3.34h-.88v-5.5h.88V226a1.85,1.85,0,0,1,1.77-1c1.4,0,2,1,2,2.27v3.33h-.88v-3.39a1.27,1.27,0,0,0-1.4-1.45A1.42,1.42,0,0,0,516.3,227.33Z"/><path d="M523.45,230.77a2.07,2.07,0,0,1-2.09-1.43l.68-.3a1.39,1.39,0,0,0,1.4,1c.59,0,1.23-.2,1.23-.92a.63.63,0,0,0-.24-.53,3.39,3.39,0,0,0-1.36-.47,2.23,2.23,0,0,1-1.36-.69,1.26,1.26,0,0,1-.24-.81,1.76,1.76,0,0,1,1.89-1.55,2.19,2.19,0,0,1,2,1.25l-.67.3a1.42,1.42,0,0,0-1.33-.82c-.48,0-1.07.23-1.07.79a.61.61,0,0,0,.24.52,3.57,3.57,0,0,0,1.37.45,2.21,2.21,0,0,1,1.37.67,1.27,1.27,0,0,1,.24.82C525.5,230.24,524.5,230.77,523.45,230.77Z"/><path d="M529.07,230.77a2.86,2.86,0,0,1-.08-5.7c1.81,0,2.47,1.33,2.47,3v.06h-4.15a1.73,1.73,0,0,0,1.77,1.95,1.69,1.69,0,0,0,1.49-1l.8.35A2.48,2.48,0,0,1,529.07,230.77Zm-1.72-3.38h3.22A1.47,1.47,0,0,0,529,225.8,1.65,1.65,0,0,0,527.35,227.39Z"/><path d="M534.44,230.77a2.06,2.06,0,0,1-2.09-1.43l.68-.3a1.39,1.39,0,0,0,1.4,1c.59,0,1.23-.2,1.23-.92a.63.63,0,0,0-.24-.53,3.39,3.39,0,0,0-1.36-.47,2.28,2.28,0,0,1-1.37-.69,1.32,1.32,0,0,1-.23-.81,1.76,1.76,0,0,1,1.89-1.55,2.19,2.19,0,0,1,2,1.25l-.67.3a1.42,1.42,0,0,0-1.33-.82c-.48,0-1.07.23-1.07.79a.61.61,0,0,0,.24.52,3.57,3.57,0,0,0,1.37.45,2.21,2.21,0,0,1,1.37.67,1.27,1.27,0,0,1,.24.82C536.49,230.24,535.48,230.77,534.44,230.77Z"/><path d="M466.9,244.3v1h-.54v-1a2.09,2.09,0,0,1-2-1.46l.86-.36a1.32,1.32,0,0,0,1.13,1V241.7c-1-.16-1.84-.52-1.84-1.67a1.76,1.76,0,0,1,1.84-1.66v-.72h.54v.73a1.88,1.88,0,0,1,1.78,1.26l-.81.35a1.13,1.13,0,0,0-1-.8v1.63c1,.16,1.93.49,1.93,1.69A1.87,1.87,0,0,1,466.9,244.3Zm-.54-3.57v-1.56c-.42.05-.84.28-.84.76S465.88,240.63,466.36,240.73Zm.54,1.06v1.7a1,1,0,0,0,.91-.88C467.81,242.05,467.39,241.89,466.9,241.79Z"/><path d="M471.81,238.44v5.78h-1.12v-4.69l-1.22.77v-1l1.36-.9Z"/><path d="M474.48,243.4l-1.08,1.82-.62-.28.74-1.92Z"/><path d="M477.26,238.44v5.78h-1.12v-4.69l-1.21.77v-1l1.35-.9Z"/><path d="M480.41,244.3a1.87,1.87,0,0,1-2-1.33l.86-.36a1.11,1.11,0,1,0,1.1-1.44,1.36,1.36,0,0,0-1.14.5h-.6l.07-3.23h3.54v.87h-2.69v1.55a1.61,1.61,0,0,1,1.25-.49,1.77,1.77,0,0,1,1.79,1.94A2,2,0,0,1,480.41,244.3Z"/><path d="M487.31,243.37v.85h-4.23v-.42l2.19-2.07a2.41,2.41,0,0,0,.89-1.64.79.79,0,0,0-.87-.87c-.65,0-1,.52-1.14,1.09l-.86-.37a2,2,0,0,1,2-1.58,1.71,1.71,0,0,1,1.93,1.72,2.84,2.84,0,0,1-1.13,2.08l-1.37,1.21Z"/><path d="M488.81,244.29a.65.65,0,1,1,0-1.3.65.65,0,1,1,0,1.3Z"/><path d="M492.67,244.3a2.27,2.27,0,0,1-2.29-1.65,4.5,4.5,0,0,1-.18-1.46c0-1.52.81-2.83,2.47-2.83,1.83,0,2.46,1.51,2.46,3.1S494.36,244.3,492.67,244.3Zm0-.87c1.27,0,1.33-1.32,1.33-2.26s-.26-1.94-1.34-1.94c-1.26,0-1.36,1.3-1.36,2.24S491.58,243.43,492.69,243.43Z"/><path d="M498.41,244.3a2.26,2.26,0,0,1-2.29-1.65,4.25,4.25,0,0,1-.18-1.46c0-1.52.81-2.83,2.47-2.83,1.83,0,2.46,1.51,2.46,3.1S500.1,244.3,498.41,244.3Zm0-.87c1.26,0,1.33-1.32,1.33-2.26s-.26-1.94-1.34-1.94c-1.26,0-1.36,1.3-1.36,2.24S497.32,243.43,498.43,243.43Z"/><path d="M466,271l-.7,2.07h-.86l2.56-7.53h1.2l2.58,7.53h-.91l-.7-2.07Zm.24-.72H469l-1.34-4Z"/><path d="M474.07,273.2c-1.68,0-2.48-1.27-2.48-2.82a2.63,2.63,0,0,1,2.57-2.88,2.15,2.15,0,0,1,1.9,1V265h.88v8.14h-.88v-.95A2.51,2.51,0,0,1,474.07,273.2Zm.13-.73c1.29,0,1.89-1,1.89-2.17s-.56-2.07-1.82-2.07-1.78,1-1.78,2.19S473.05,272.47,474.2,272.47Z"/><path d="M483.09,267.6l-1.94,5.51H480l-2-5.51H479l1.59,4.62,1.57-4.62Z"/><path d="M485.58,273.2a1.63,1.63,0,0,1-1.83-1.62c0-1.75,2.31-1.71,3.54-1.71,0-1-.18-1.64-1.29-1.64a1.44,1.44,0,0,0-1.38,1l-.75-.33a2.27,2.27,0,0,1,2.2-1.36,1.93,1.93,0,0,1,2.1,2v3.62h-.88v-.7A2.11,2.11,0,0,1,485.58,273.2Zm.08-.69a1.48,1.48,0,0,0,1.63-1.33v-.69h-.75c-.73,0-1.92.13-1.92,1.09C484.62,272.25,485,272.51,485.66,272.51Z"/><path d="M490.75,269.77v3.34h-.88V267.6h.88v.87a1.88,1.88,0,0,1,1.77-1c1.4,0,2,1,2,2.28v3.33h-.87v-3.39a1.28,1.28,0,0,0-1.4-1.46A1.43,1.43,0,0,0,490.75,269.77Z"/><path d="M498.5,273.2a2.6,2.6,0,0,1-2.64-2.87,2.68,2.68,0,0,1,2.69-2.83A2.49,2.49,0,0,1,501,269l-.8.35a1.75,1.75,0,0,0-1.63-1.15c-1.21,0-1.77,1.1-1.77,2.18a1.82,1.82,0,0,0,1.8,2.06,1.77,1.77,0,0,0,1.68-1.29l.75.33A2.53,2.53,0,0,1,498.5,273.2Z"/><path d="M504.56,273.2a2.86,2.86,0,0,1-.09-5.7c1.82,0,2.47,1.34,2.47,3v.07H502.8a1.73,1.73,0,0,0,1.77,1.94,1.69,1.69,0,0,0,1.48-1l.8.34A2.46,2.46,0,0,1,504.56,273.2Zm-1.73-3.38h3.22a1.47,1.47,0,0,0-1.58-1.59A1.66,1.66,0,0,0,502.83,269.82Z"/><path d="M509.92,273.2a2.06,2.06,0,0,1-2.08-1.43l.67-.3a1.4,1.4,0,0,0,1.4,1c.59,0,1.23-.2,1.23-.91a.65.65,0,0,0-.23-.54,3.66,3.66,0,0,0-1.37-.47,2.13,2.13,0,0,1-1.36-.69,1.24,1.24,0,0,1-.24-.81,1.77,1.77,0,0,1,1.9-1.55,2.2,2.2,0,0,1,2,1.26l-.68.29a1.42,1.42,0,0,0-1.32-.82c-.48,0-1.08.24-1.08.79a.59.59,0,0,0,.24.52,3.46,3.46,0,0,0,1.37.45,2.19,2.19,0,0,1,1.38.68,1.28,1.28,0,0,1,.23.81C512,272.67,511,273.2,509.92,273.2Z"/><path d="M466.9,286.73v1h-.54v-1a2.06,2.06,0,0,1-2-1.46l.86-.36a1.31,1.31,0,0,0,1.13,1v-1.79c-1-.16-1.84-.51-1.84-1.67a1.77,1.77,0,0,1,1.84-1.66v-.72h.54v.73a1.88,1.88,0,0,1,1.78,1.26l-.81.35a1.13,1.13,0,0,0-1-.8v1.63c1,.16,1.93.5,1.93,1.69A1.87,1.87,0,0,1,466.9,286.73Zm-.54-3.57V281.6c-.42,0-.84.29-.84.76S465.88,283.07,466.36,283.16Zm.54,1.06v1.7a.94.94,0,0,0,.91-.87C467.81,284.48,467.39,284.32,466.9,284.22Z"/><path d="M471.81,280.88v5.78h-1.12V282l-1.22.77v-1l1.36-.89Z"/><path d="M474.48,285.83l-1.08,1.82-.62-.27.74-1.93Z"/><path d="M477.26,280.88v5.78h-1.12V282l-1.21.77v-1l1.35-.89Z"/><path d="M480.41,286.74a1.87,1.87,0,0,1-2-1.34l.86-.36a1.11,1.11,0,1,0,1.1-1.43,1.38,1.38,0,0,0-1.14.49h-.6l.07-3.22h3.54v.86h-2.69v1.55a1.64,1.64,0,0,1,1.25-.48,1.76,1.76,0,0,1,1.79,1.93A2,2,0,0,1,480.41,286.74Z"/><path d="M487.31,285.8v.86h-4.23v-.43l2.19-2.06a2.43,2.43,0,0,0,.89-1.65.79.79,0,0,0-.87-.87c-.65,0-1,.53-1.14,1.09l-.86-.37a2,2,0,0,1,2-1.58,1.71,1.71,0,0,1,1.93,1.72,2.84,2.84,0,0,1-1.13,2.08l-1.37,1.21Z"/><path d="M488.81,286.72a.65.65,0,1,1,0-1.29.65.65,0,1,1,0,1.29Z"/><path d="M492.67,286.74a2.28,2.28,0,0,1-2.29-1.65,4.54,4.54,0,0,1-.18-1.46c0-1.53.81-2.84,2.47-2.84,1.83,0,2.46,1.52,2.46,3.1S494.36,286.74,492.67,286.74Zm0-.88c1.27,0,1.33-1.31,1.33-2.25s-.26-1.95-1.34-1.95c-1.26,0-1.36,1.3-1.36,2.25S491.58,285.86,492.69,285.86Z"/><path d="M498.41,286.74a2.28,2.28,0,0,1-2.29-1.65,4.28,4.28,0,0,1-.18-1.46c0-1.53.81-2.84,2.47-2.84,1.83,0,2.46,1.52,2.46,3.1S500.1,286.74,498.41,286.74Zm0-.88c1.26,0,1.33-1.31,1.33-2.25s-.26-1.95-1.34-1.95c-1.26,0-1.36,1.3-1.36,2.25S497.32,285.86,498.43,285.86Z"/><circle cx="444.36" cy="318.35" r="11.18" fill="#d9f3fc"/><path d="M465.94,312.26v3.28H465V308h2.47c1.4,0,2.63.55,2.63,2.14a2,2,0,0,1-1.86,2.05l2.3,3.34h-1l-2.24-3.28Zm0-.72h1.62c1,0,1.66-.39,1.66-1.43s-.71-1.36-1.66-1.36h-1.62Z"/><path d="M474,315.63a2.85,2.85,0,0,1-.08-5.69c1.81,0,2.47,1.33,2.47,3V313h-4.15a1.73,1.73,0,0,0,1.77,2,1.66,1.66,0,0,0,1.48-1l.81.35A2.47,2.47,0,0,1,474,315.63Zm-1.73-3.38h3.22a1.47,1.47,0,0,0-1.57-1.59A1.67,1.67,0,0,0,472.22,312.25Z"/><path d="M478.1,308.87a.58.58,0,1,1,.58-.57A.57.57,0,0,1,478.1,308.87Zm.45,1.16v5.51h-.87V310Z"/><path d="M481.21,312.17v3.37h-.88V310h.88v.85a1.56,1.56,0,0,1,1.53-.94,1.85,1.85,0,0,1,1.77,1,1.92,1.92,0,0,1,1.78-1,2,2,0,0,1,2,2.19v3.41h-.87v-3.48a1.2,1.2,0,0,0-1.33-1.36,1.33,1.33,0,0,0-1.34,1.47v3.37h-.88v-3.48a1.2,1.2,0,0,0-1.33-1.36A1.34,1.34,0,0,0,481.21,312.17Z"/><path d="M492.83,315.63a2.21,2.21,0,0,1-1.94-1v.91H490V307.4h.88V311a2.38,2.38,0,0,1,1.94-1,2.55,2.55,0,0,1,2.53,2.85A2.59,2.59,0,0,1,492.83,315.63Zm-.08-.72c1.32,0,1.7-1,1.7-2.16s-.53-2.09-1.71-2.09-1.89,1-1.89,2.17A1.86,1.86,0,0,0,492.75,314.91Z"/><path d="M498.73,315.63a1.9,1.9,0,0,1-2.07-2.11V310h.87v3.45a1.27,1.27,0,0,0,1.43,1.4,1.39,1.39,0,0,0,1.47-1.51V310h.87v5.51h-.87v-.87A1.77,1.77,0,0,1,498.73,315.63Z"/><path d="M503.93,312.52v3h-.87V310h.87v1a1.93,1.93,0,0,1,1.82-1.08v.82C504.48,310.82,503.93,311.29,503.93,312.52Z"/><path d="M508.61,315.63a2.06,2.06,0,0,1-2.08-1.43l.67-.29a1.41,1.41,0,0,0,1.41,1c.58,0,1.23-.21,1.23-.92a.66.66,0,0,0-.24-.54,3.54,3.54,0,0,0-1.36-.46,2.28,2.28,0,0,1-1.37-.69,1.26,1.26,0,0,1-.23-.81,1.76,1.76,0,0,1,1.89-1.55,2.2,2.2,0,0,1,2,1.25l-.67.3a1.43,1.43,0,0,0-1.33-.83c-.48,0-1.07.24-1.07.79a.63.63,0,0,0,.23.53,3.5,3.5,0,0,0,1.38.44,2.24,2.24,0,0,1,1.37.68,1.27,1.27,0,0,1,.24.82C510.67,315.11,509.66,315.63,508.61,315.63Z"/><path d="M514.24,315.63a2.85,2.85,0,0,1-.09-5.69c1.82,0,2.48,1.33,2.48,3V313h-4.15a1.73,1.73,0,0,0,1.77,2,1.67,1.67,0,0,0,1.48-1l.8.35A2.44,2.44,0,0,1,514.24,315.63Zm-1.73-3.38h3.22a1.47,1.47,0,0,0-1.58-1.59A1.67,1.67,0,0,0,512.51,312.25Z"/><path d="M518.82,312.17v3.37H518V310h.87v.85a1.57,1.57,0,0,1,1.54-.94,1.86,1.86,0,0,1,1.77,1,1.91,1.91,0,0,1,1.78-1,2,2,0,0,1,2,2.19v3.41H525v-3.48a1.2,1.2,0,0,0-1.32-1.36,1.34,1.34,0,0,0-1.35,1.47v3.37h-.88v-3.48a1.2,1.2,0,0,0-1.32-1.36A1.35,1.35,0,0,0,518.82,312.17Z"/><path d="M529.88,315.63a2.85,2.85,0,0,1-.09-5.69c1.82,0,2.48,1.33,2.48,3V313h-4.15a1.73,1.73,0,0,0,1.77,2,1.67,1.67,0,0,0,1.48-1l.8.35A2.45,2.45,0,0,1,529.88,315.63Zm-1.73-3.38h3.22a1.47,1.47,0,0,0-1.58-1.59A1.67,1.67,0,0,0,528.15,312.25Z"/><path d="M534.46,312.2v3.34h-.87V310h.87v.88a1.86,1.86,0,0,1,1.77-1c1.4,0,2,1,2,2.27v3.33h-.87v-3.39a1.27,1.27,0,0,0-1.4-1.45A1.42,1.42,0,0,0,534.46,312.2Z"/><path d="M541.65,315.61a1.31,1.31,0,0,1-1.48-1.45v-3.39h-.79V310h.79v-1l.87-.38V310h1.29v.74H541v3.31c0,.47.16.8.69.8a2.06,2.06,0,0,0,.67-.12v.74A2.43,2.43,0,0,1,541.65,315.61Z"/><path d="M545.34,315.63a2.06,2.06,0,0,1-2.09-1.43l.68-.29a1.4,1.4,0,0,0,1.4,1c.59,0,1.23-.21,1.23-.92a.66.66,0,0,0-.24-.54A3.54,3.54,0,0,0,545,313a2.23,2.23,0,0,1-1.36-.69,1.26,1.26,0,0,1-.24-.81,1.76,1.76,0,0,1,1.89-1.55,2.19,2.19,0,0,1,2,1.25l-.67.3a1.41,1.41,0,0,0-1.33-.83c-.48,0-1.07.24-1.07.79a.61.61,0,0,0,.24.53,3.4,3.4,0,0,0,1.37.44,2.22,2.22,0,0,1,1.37.68,1.27,1.27,0,0,1,.24.82C547.39,315.11,546.39,315.63,545.34,315.63Z"/><path d="M466.9,329.16v1h-.54v-1a2.07,2.07,0,0,1-2-1.45l.86-.37a1.3,1.3,0,0,0,1.13,1v-1.78c-1-.16-1.84-.52-1.84-1.68a1.76,1.76,0,0,1,1.84-1.65v-.72h.54v.72a1.91,1.91,0,0,1,1.78,1.27l-.81.34a1.16,1.16,0,0,0-1-.8v1.64c1,.16,1.93.49,1.93,1.69A1.86,1.86,0,0,1,466.9,329.16Zm-.54-3.56V324c-.42,0-.84.28-.84.76S465.88,325.5,466.36,325.6Zm.54,1.06v1.69a.94.94,0,0,0,.91-.87C467.81,326.92,467.39,326.75,466.9,326.66Z"/><path d="M471.81,323.31v5.78h-1.12V324.4l-1.22.77v-1l1.36-.9Z"/><path d="M474.48,328.27l-1.08,1.82-.62-.28.74-1.92Z"/><path d="M477.26,323.31v5.78h-1.12V324.4l-1.21.77v-1l1.35-.9Z"/><path d="M480.41,329.17a1.87,1.87,0,0,1-2-1.33l.86-.37a1.11,1.11,0,0,0,2.18-.3,1,1,0,0,0-1.08-1.13,1.36,1.36,0,0,0-1.14.5h-.6l.07-3.23h3.54v.86h-2.69v1.56a1.61,1.61,0,0,1,1.25-.49,1.76,1.76,0,0,1,1.79,1.93A2,2,0,0,1,480.41,329.17Z"/><path d="M487.31,328.23v.86h-4.23v-.43l2.19-2.06a2.41,2.41,0,0,0,.89-1.64.79.79,0,0,0-.87-.87c-.65,0-1,.52-1.14,1.09l-.86-.38a2,2,0,0,1,2-1.57,1.71,1.71,0,0,1,1.93,1.71,2.86,2.86,0,0,1-1.13,2.09l-1.37,1.2Z"/><path d="M488.81,329.16a.65.65,0,1,1,.67-.65A.65.65,0,0,1,488.81,329.16Z"/><path d="M492.67,329.17a2.28,2.28,0,0,1-2.29-1.65,4.5,4.5,0,0,1-.18-1.46c0-1.52.81-2.83,2.47-2.83,1.83,0,2.46,1.51,2.46,3.1S494.36,329.17,492.67,329.17Zm0-.87C494,328.3,494,327,494,326s-.26-2-1.34-2c-1.26,0-1.36,1.3-1.36,2.25S491.58,328.3,492.69,328.3Z"/><path d="M498.41,329.17a2.28,2.28,0,0,1-2.29-1.65,4.25,4.25,0,0,1-.18-1.46c0-1.52.81-2.83,2.47-2.83,1.83,0,2.46,1.51,2.46,3.1S500.1,329.17,498.41,329.17Zm0-.87c1.26,0,1.33-1.32,1.33-2.26s-.26-2-1.34-2c-1.26,0-1.36,1.3-1.36,2.25S497.32,328.3,498.43,328.3Z"/><path d="M467.49,351.6v6.78h-.92V351.6h-2.19v-.75h5.3v.75Z"/><path d="M472.78,358.47a2.85,2.85,0,1,1,2.75-2.81A2.69,2.69,0,0,1,472.78,358.47Zm0-.72c1.25,0,1.83-1,1.83-2.15a1.88,1.88,0,0,0-1.83-2.1c-1.29,0-1.83,1-1.83,2.17A1.84,1.84,0,0,0,472.79,357.75Z"/><path d="M478.55,358.45a1.31,1.31,0,0,1-1.48-1.45v-3.39h-.79v-.74h.79v-1l.87-.38v1.41h1.29v.74h-1.29v3.3c0,.48.17.81.69.81a2.06,2.06,0,0,0,.67-.12v.74A2.43,2.43,0,0,1,478.55,358.45Z"/><path d="M482,358.47a1.63,1.63,0,0,1-1.83-1.62c0-1.75,2.32-1.7,3.55-1.7,0-1-.19-1.65-1.3-1.65a1.46,1.46,0,0,0-1.38,1l-.74-.33a2.24,2.24,0,0,1,2.2-1.35,1.92,1.92,0,0,1,2.09,2v3.61h-.87v-.7A2.12,2.12,0,0,1,482,358.47Zm.09-.69a1.49,1.49,0,0,0,1.63-1.33v-.68H483c-.73,0-1.92.12-1.92,1.08C481.05,357.53,481.47,357.78,482.1,357.78Z"/><path d="M487.22,350v8.34h-.89v-7.95Z"/><path d="M493.55,351.6v6.78h-.91V351.6h-2.19v-.75h5.29v.75Z"/><path d="M497.59,355.36v3h-.88v-5.51h.88v1a1.91,1.91,0,0,1,1.81-1.08v.82C498.14,353.66,497.59,354.13,497.59,355.36Z"/><path d="M501.11,351.71a.58.58,0,1,1,.58-.58A.57.57,0,0,1,501.11,351.71Zm.45,1.16v5.51h-.87v-5.51Z"/><path d="M504.21,357.47v2.82h-.87v-7.42h.87v.93a2.41,2.41,0,0,1,2-1c1.68,0,2.51,1.29,2.51,2.85a2.57,2.57,0,0,1-2.51,2.84A2.26,2.26,0,0,1,504.21,357.47Zm1.83.28c1.32,0,1.74-1,1.74-2.16s-.57-2.09-1.75-2.09-1.85,1-1.85,2.17A1.83,1.83,0,0,0,506,357.75Z"/><path d="M511.67,358.47a2.07,2.07,0,0,1-2.09-1.43l.68-.29a1.4,1.4,0,0,0,1.4,1c.59,0,1.23-.21,1.23-.92a.63.63,0,0,0-.24-.54,3.38,3.38,0,0,0-1.36-.46,2.19,2.19,0,0,1-1.36-.7,1.22,1.22,0,0,1-.24-.81,1.76,1.76,0,0,1,1.89-1.54,2.19,2.19,0,0,1,2,1.25l-.67.29a1.42,1.42,0,0,0-1.33-.82c-.47,0-1.07.24-1.07.79a.59.59,0,0,0,.24.52,3.31,3.31,0,0,0,1.37.45,2.22,2.22,0,0,1,1.37.68,1.25,1.25,0,0,1,.24.82C513.72,358,512.72,358.47,511.67,358.47Z"/><path d="M466.39,372a1.86,1.86,0,0,1-2-1.34l.85-.36a1,1,0,0,0,1.11.84,1.14,1.14,0,0,0,0-2.27,1.36,1.36,0,0,0-1.14.49h-.6l.06-3.22h3.55V367h-2.69l0,1.55a1.66,1.66,0,0,1,1.25-.48,1.75,1.75,0,0,1,1.79,1.93A2,2,0,0,1,466.39,372Z"/><rect x="431.05" y="15.3" width="200.36" height="103.73" rx="12.06" ry="12.06" fill="#fff"/><path d="M451.74,33.56h3.54c2.35,0,3.35,1.35,3.35,3.17,0,2.13-1.43,3.13-3.54,3.13h-1.68v3.49h-1.67Zm3.19,4.8c1.36,0,2-.69,2-1.65s-.66-1.66-1.86-1.66h-1.64v3.31Z"/><path d="M466.19,40.49h-4.9a1.86,1.86,0,0,0,2,1.56,2.1,2.1,0,0,0,1.69-.78l1.08.92a3.6,3.6,0,0,1-6.34-2.2,3.27,3.27,0,0,1,3.38-3.46,3.14,3.14,0,0,1,3.17,3.37A3.57,3.57,0,0,1,466.19,40.49Zm-4.87-1.21h3.36a1.61,1.61,0,0,0-1.63-1.36A1.7,1.7,0,0,0,461.32,39.28Z"/><path d="M467.83,36.62h1.54v.93h0a2.9,2.9,0,0,1,2.25-1c1.47,0,2.46.84,2.46,2.86v4h-1.54V39.79c0-1.42-.54-1.87-1.46-1.87s-1.74.73-1.74,2v3.38h-1.54Z"/><path d="M475.58,40a3.29,3.29,0,0,1,3.26-3.48,2.69,2.69,0,0,1,2.14.92h0V33.21h1.53V43.35h-1.48v-.91h0a2.63,2.63,0,0,1-2.19,1A3.23,3.23,0,0,1,475.58,40Zm5.47,0a2,2,0,1,0-3.9,0,1.9,1.9,0,0,0,1.93,2A1.93,1.93,0,0,0,481.05,40Z"/><path d="M484.37,34.6a1,1,0,0,1,1-1,1,1,0,1,1,0,2.05A1,1,0,0,1,484.37,34.6Zm.26,2h1.55v6.73h-1.55Z"/><path d="M488.28,36.62h1.54v.93h0a2.9,2.9,0,0,1,2.25-1c1.47,0,2.46.84,2.46,2.86v4H493V39.79c0-1.42-.54-1.87-1.46-1.87s-1.74.73-1.74,2v3.38h-1.54Z"/><path d="M496.71,45.47l.37-1.35a4.46,4.46,0,0,0,2.29.66c1.32,0,2-.76,2-1.65v-.71h0a2.83,2.83,0,0,1-2,.82,3.36,3.36,0,0,1-.08-6.71,3,3,0,0,1,2.09.81h0v-.72h1.54v6c0,2-.94,3.51-3.43,3.51A5.47,5.47,0,0,1,496.71,45.47Zm4.7-5.62a1.91,1.91,0,1,0-1.9,2A1.87,1.87,0,0,0,501.41,39.85Z"/><path d="M510.7,35.05h-2.77V33.56h7.25v1.49h-2.81v8.3H510.7Z"/><path d="M515.76,36.62h1.54v1h0a2.57,2.57,0,0,1,2.08-1.1h.19v1.72l-.47,0a1.78,1.78,0,0,0-1.83,1.94v3.19h-1.54Z"/><path d="M520.71,34.6a1,1,0,1,1,1,1A1,1,0,0,1,520.71,34.6Zm.27,2h1.54v6.73H521Z"/><path d="M524.62,36.62h1.55v.8h0a2.73,2.73,0,0,1,2.13-.89A3.27,3.27,0,0,1,531.57,40a3.22,3.22,0,0,1-3.27,3.45,2.59,2.59,0,0,1-2.11-.94h0v3.55h-1.55ZM530,40a2,2,0,0,0-1.94-2.11,2,2,0,0,0-2,2.11,1.93,1.93,0,0,0,2,2A1.9,1.9,0,0,0,530,40Z"/><path d="M532.61,42.48l.77-1.16a2.57,2.57,0,0,0,2,.79c.59,0,.93-.26.93-.66s-.44-.51-1.32-.82c-1.1-.38-2.05-.88-2.05-2.2,0-1.1,1-1.9,2.37-1.9a3.57,3.57,0,0,1,2.37.84l-.77,1.21a2.48,2.48,0,0,0-1.68-.72c-.31,0-.74.17-.74.58s.42.57,1.07.82c1.43.56,2.32.82,2.32,2.16,0,1.13-.8,2-2.5,2A4,4,0,0,1,532.61,42.48Z"/><circle cx="460.64" cy="88.25" r="10.1" fill="#e4ebfe"/><path d="M452.26,59.27l-.62,1.82h-.76l2.26-6.65h1.06l2.28,6.65h-.8l-.61-1.82Zm.21-.64h2.39l-1.2-3.52Z" fill="#70727a"/><path d="M458.37,60.29v2.5h-.77V56.23h.77v.82a2.13,2.13,0,0,1,1.74-.91,2.24,2.24,0,0,1,2.22,2.52,2.28,2.28,0,0,1-2.22,2.52A2,2,0,0,1,458.37,60.29Zm1.62.25c1.16,0,1.54-.88,1.54-1.91S461,56.78,460,56.78s-1.64.88-1.64,1.92A1.63,1.63,0,0,0,460,60.54Z" fill="#70727a"/><path d="M464.29,60.29v2.5h-.77V56.23h.77v.82a2.13,2.13,0,0,1,1.74-.91,2.23,2.23,0,0,1,2.22,2.52A2.28,2.28,0,0,1,466,61.18,2,2,0,0,1,464.29,60.29Zm1.62.25c1.17,0,1.54-.88,1.54-1.91s-.5-1.85-1.55-1.85-1.63.88-1.63,1.92A1.62,1.62,0,0,0,465.91,60.54Z" fill="#70727a"/><path d="M470.22,58.42v2.67h-.77V56.23h.77v.87a1.73,1.73,0,0,1,1.6-1v.73C470.7,56.92,470.22,57.34,470.22,58.42Z" fill="#70727a"/><path d="M474.92,61.18a2.52,2.52,0,1,1,2.43-2.49A2.37,2.37,0,0,1,474.92,61.18Zm0-.64c1.11,0,1.62-.88,1.62-1.9a1.67,1.67,0,0,0-1.62-1.86c-1.14,0-1.62.89-1.62,1.92A1.62,1.62,0,0,0,474.93,60.54Z" fill="#70727a"/><path d="M482.36,56.23l-1.72,4.86h-1l-1.73-4.86h.83l1.41,4.08,1.39-4.08Z" fill="#70727a"/><path d="M485.29,61.18a2.53,2.53,0,0,1-.08-5c1.61,0,2.19,1.18,2.19,2.62v.05h-3.67a1.54,1.54,0,0,0,1.57,1.73,1.5,1.5,0,0,0,1.31-.86l.71.31A2.2,2.2,0,0,1,485.29,61.18Zm-1.53-3h2.85a1.31,1.31,0,0,0-1.4-1.41A1.48,1.48,0,0,0,483.76,58.19Z" fill="#70727a"/><path d="M489.34,58.42v2.67h-.77V56.23h.77v.87a1.73,1.73,0,0,1,1.6-1v.73C489.83,56.92,489.34,57.34,489.34,58.42Z" fill="#70727a"/><path d="M477.69,83.87v3.07h-.92V79.41h2.35c1.46,0,2.63.64,2.63,2.24a2.17,2.17,0,0,1-.29,1.2c-.65,1-1.94,1-3,1h-.77Zm0-.72h1.49c1.05,0,1.65-.45,1.65-1.54s-.64-1.46-1.65-1.46h-1.49Z"/><path d="M484.38,87a1.63,1.63,0,0,1-1.83-1.62c0-1.75,2.31-1.71,3.54-1.71,0-1-.19-1.64-1.29-1.64a1.45,1.45,0,0,0-1.38,1l-.75-.33a2.27,2.27,0,0,1,2.2-1.36,1.93,1.93,0,0,1,2.1,2v3.62h-.88v-.7A2.11,2.11,0,0,1,484.38,87Zm.08-.69A1.48,1.48,0,0,0,486.09,85v-.69h-.75c-.73,0-1.92.13-1.92,1.09C483.42,86.08,483.83,86.34,484.46,86.34Z"/><path d="M490.35,87a1.32,1.32,0,0,1-1.49-1.45V82.17h-.79v-.74h.79v-1l.88-.38v1.41H491v.74h-1.28v3.3c0,.48.16.8.68.8a2.1,2.1,0,0,0,.68-.11v.73A2.5,2.5,0,0,1,490.35,87Z"/><path d="M493.28,83.91v3h-.88V81.43h.88v1a1.94,1.94,0,0,1,1.81-1.09v.83C493.82,82.21,493.28,82.69,493.28,83.91Z"/><path d="M496.79,80.27a.57.57,0,0,1-.57-.58.58.58,0,1,1,.57.58Zm.46,1.16v5.51h-.88V81.43Z"/><path d="M501.26,87a2.6,2.6,0,0,1-2.64-2.87,2.68,2.68,0,0,1,2.69-2.83,2.51,2.51,0,0,1,2.41,1.53l-.8.35a1.75,1.75,0,0,0-1.63-1.15c-1.21,0-1.77,1.1-1.77,2.18a1.82,1.82,0,0,0,1.8,2.06A1.77,1.77,0,0,0,503,85l.76.33A2.55,2.55,0,0,1,501.26,87Z"/><path d="M505.5,80.27a.57.57,0,0,1-.57-.58.58.58,0,1,1,.57.58Zm.46,1.16v5.51h-.88V81.43Z"/><path d="M509.12,87a1.64,1.64,0,0,1-1.84-1.62c0-1.75,2.32-1.71,3.55-1.71,0-1-.19-1.64-1.29-1.64a1.45,1.45,0,0,0-1.38,1l-.75-.33a2.27,2.27,0,0,1,2.2-1.36,1.93,1.93,0,0,1,2.1,2v3.62h-.88v-.7A2.11,2.11,0,0,1,509.12,87Zm.08-.69A1.49,1.49,0,0,0,510.83,85v-.69h-.76c-.72,0-1.91.13-1.91,1.09C508.16,86.08,508.57,86.34,509.2,86.34Z"/><path d="M614.92,92.18v1.11h-6.26v-.55l3.46-3.39a3.66,3.66,0,0,0,1.35-2.57A1.32,1.32,0,0,0,612,85.31c-1.1,0-1.64.85-1.92,1.81L609,86.65a3,3,0,0,1,3-2.44,2.53,2.53,0,0,1,2.84,2.58A4.57,4.57,0,0,1,613.09,90l-2.34,2.14Z"/><path d="M477.59,96.17v2.18h-1.12V92.57h2c1.22,0,2.16.49,2.16,1.82s-1.14,1.78-2.38,1.78Zm0-.81h.88c.69,0,1.08-.28,1.08-1s-.42-.94-1.08-.94h-.88Z"/><path d="M482.58,98.43c-.8,0-1.42-.41-1.42-1.25,0-1.37,1.73-1.35,2.71-1.35,0-.61-.09-1-.82-1a1,1,0,0,0-.94.61l-.78-.34a1.82,1.82,0,0,1,1.81-1c1,0,1.73.48,1.73,1.55v2.77h-1v-.52A1.53,1.53,0,0,1,482.58,98.43Zm.25-.72c.52,0,1-.27,1-.84v-.41h-.51c-.46,0-1.21.05-1.21.68C482.15,97.56,482.45,97.71,482.83,97.71Z"/><path d="M487.45,98.42a1.15,1.15,0,0,1-1.3-1.26v-2.3h-.57v-.74h.57v-.87l1-.44v1.31h.92v.74h-.92v2.21c0,.33.13.54.49.54a1.35,1.35,0,0,0,.47-.09v.8A2.59,2.59,0,0,1,487.45,98.42Z"/><path d="M490,96.17v2.18h-1V94.12h1v.79a1.43,1.43,0,0,1,1.38-.85V95C490.56,95,490,95.26,490,96.17Z"/><path d="M492.75,93.44a.58.58,0,1,1,.59-.57A.56.56,0,0,1,492.75,93.44Zm.51.68v4.23h-1V94.12Z"/><path d="M496.29,98.43a2,2,0,0,1-2.14-2.21A2.1,2.1,0,0,1,496.31,94a1.88,1.88,0,0,1,1.91,1.19l-.82.36a1.1,1.1,0,0,0-1.08-.75c-.83,0-1.13.72-1.13,1.44s.32,1.39,1.16,1.39a1.12,1.12,0,0,0,1.12-.85l.77.34A1.89,1.89,0,0,1,496.29,98.43Z"/><path d="M499.61,93.44a.58.58,0,1,1,0-1.15.57.57,0,0,1,.59.58A.56.56,0,0,1,499.61,93.44Zm.51.68v4.23h-1V94.12Z"/><path d="M502.41,98.43A1.24,1.24,0,0,1,501,97.18c0-1.37,1.73-1.35,2.7-1.35,0-.61-.09-1-.82-1a1,1,0,0,0-.93.61l-.79-.34A1.82,1.82,0,0,1,503,94c1,0,1.73.48,1.73,1.55v2.77h-1v-.52A1.51,1.51,0,0,1,502.41,98.43Zm.26-.72c.51,0,1-.27,1-.84v-.41h-.5c-.46,0-1.21.05-1.21.68C502,97.56,502.28,97.71,502.67,97.71Z"/><path d="M509,99.58a3.24,3.24,0,0,1-3.43-3.31,3.5,3.5,0,0,1,3.56-3.49,3,3,0,0,1,3.28,3c0,1-.45,2.13-1.62,2.13-.49,0-.94-.14-1-.68a1.32,1.32,0,0,1-2.49-.73,1.74,1.74,0,0,1,1.6-1.89.93.93,0,0,1,1,.53l.07-.46h.9l-.26,2.11a1,1,0,0,0,0,.17c0,.26.11.42.39.42.75,0,.91-1,.91-1.59a2.39,2.39,0,0,0-2.67-2.42,2.83,2.83,0,0,0-2.91,3A2.62,2.62,0,0,0,509,99a3,3,0,0,0,2-.68l.52.23A3.35,3.35,0,0,1,509,99.58Zm-.17-2.39c.6,0,.88-.64.88-1.15s-.21-.77-.72-.77-.81.66-.81,1.15S508.36,97.19,508.81,97.19Z"/><path d="M516.47,97.55v.8h-3.66V98l2.34-3H513v-.79h3.51v.4l-2.34,3Z"/><path d="M519.16,98.43a2.2,2.2,0,0,1-2.32-2.22A2.23,2.23,0,0,1,519.17,94a2.2,2.2,0,1,1,0,4.4Zm0-.78c.87,0,1.21-.69,1.21-1.44a1.24,1.24,0,0,0-1.21-1.4c-.88,0-1.21.69-1.21,1.45A1.23,1.23,0,0,0,519.17,97.65Z"/><path d="M523.26,95.87v2.48h-1V92.17h1v2.62a1.5,1.5,0,0,1,1.39-.76,1.48,1.48,0,0,1,1.52,1.67v2.65h-1V95.8a.84.84,0,0,0-.93-.94A.91.91,0,0,0,523.26,95.87Z"/><path d="M529.2,98.43a2.2,2.2,0,0,1-2.32-2.22A2.23,2.23,0,0,1,529.21,94a2.2,2.2,0,1,1,0,4.4Zm0-.78c.87,0,1.21-.69,1.21-1.44a1.24,1.24,0,0,0-1.21-1.4c-.88,0-1.21.69-1.21,1.45A1.23,1.23,0,0,0,529.21,97.65Z"/><path d="M534.14,98.43A2,2,0,0,1,532,96.22,2.1,2.1,0,0,1,534.16,94a1.88,1.88,0,0,1,1.91,1.19l-.82.36a1.1,1.1,0,0,0-1.08-.75c-.83,0-1.13.72-1.13,1.44s.32,1.39,1.15,1.39a1.13,1.13,0,0,0,1.13-.85l.77.34A1.89,1.89,0,0,1,534.14,98.43Z"/><path d="M538.84,98.43a2.2,2.2,0,0,1-2.32-2.22A2.24,2.24,0,0,1,538.86,94a2.2,2.2,0,1,1,0,4.4Zm0-.78c.86,0,1.2-.69,1.2-1.44s-.38-1.4-1.2-1.4-1.21.69-1.21,1.45A1.23,1.23,0,0,0,538.86,97.65Z"/><path d="M542.94,96.17v2.18h-1V94.12h1v.79a1.43,1.43,0,0,1,1.38-.85V95C543.5,95,542.94,95.26,542.94,96.17Z"/><path d="M546.17,97.69V99.8h-1V94.12h1v.68a1.69,1.69,0,0,1,1.44-.77,2.22,2.22,0,0,1,0,4.4A1.62,1.62,0,0,1,546.17,97.69Zm1.17,0c.89,0,1.15-.67,1.15-1.44s-.36-1.38-1.15-1.38-1.2.67-1.2,1.44S546.5,97.64,547.34,97.64Z"/><path d="M550.91,98.41a.65.65,0,1,1,0-1.29.65.65,0,0,1,.67.65A.65.65,0,0,1,550.91,98.41Z"/><path d="M554.43,98.43a2,2,0,0,1-2.13-2.21A2.1,2.1,0,0,1,554.45,94a1.88,1.88,0,0,1,1.91,1.19l-.82.36a1.1,1.1,0,0,0-1.08-.75c-.83,0-1.13.72-1.13,1.44s.32,1.39,1.16,1.39a1.12,1.12,0,0,0,1.12-.85l.77.34A1.89,1.89,0,0,1,554.43,98.43Z"/><path d="M559.14,98.43a2.2,2.2,0,0,1-2.32-2.22A2.23,2.23,0,0,1,559.15,94a2.2,2.2,0,1,1,0,4.4Zm0-.78c.87,0,1.2-.69,1.2-1.44s-.38-1.4-1.2-1.4-1.21.69-1.21,1.45A1.23,1.23,0,0,0,559.15,97.65Z"/><path d="M563.23,95.82v2.53h-1V94.12h1v.65a1.42,1.42,0,0,1,1.3-.74,1.25,1.25,0,0,1,1.24.75,1.71,1.71,0,0,1,1.44-.75c1,0,1.45.72,1.45,1.64v2.68h-1V95.74a.77.77,0,0,0-.82-.88.87.87,0,0,0-.89,1v2.53h-1V95.74a.77.77,0,0,0-.82-.88A.87.87,0,0,0,563.23,95.82Z"/><path d="M592.18,61.18c-2.07,0-3.18-1.48-3.18-3.45a3.18,3.18,0,0,1,3.13-3.39,2.92,2.92,0,0,1,2.74,1.85l-.66.29a2.17,2.17,0,0,0-2.07-1.5c-1.61,0-2.3,1.38-2.3,2.82s.78,2.72,2.36,2.72a2.38,2.38,0,0,0,2.12-1.59l.62.27A3,3,0,0,1,592.18,61.18Z" fill="#70727a"/><path d="M598.16,61.18a2.52,2.52,0,1,1,2.43-2.49A2.37,2.37,0,0,1,598.16,61.18Zm0-.64c1.1,0,1.61-.88,1.61-1.9a1.66,1.66,0,0,0-1.61-1.86c-1.14,0-1.62.89-1.62,1.92A1.62,1.62,0,0,0,598.17,60.54Z" fill="#70727a"/><path d="M603.57,61.18a1.68,1.68,0,0,1-1.83-1.87V56.23h.77v3a1.12,1.12,0,0,0,1.26,1.24,1.23,1.23,0,0,0,1.3-1.33v-3h.77v4.86h-.77v-.77A1.56,1.56,0,0,1,603.57,61.18Z" fill="#70727a"/><path d="M608.17,58.14v3h-.77V56.23h.77V57a1.65,1.65,0,0,1,1.57-.86c1.24,0,1.8.85,1.8,2v2.94h-.77v-3a1.13,1.13,0,0,0-1.24-1.29A1.26,1.26,0,0,0,608.17,58.14Z" fill="#70727a"/><path d="M614.53,61.16a1.16,1.16,0,0,1-1.31-1.29v-3h-.7v-.65h.7v-.92L614,55v1.25h1.14v.65H614V59.8c0,.42.15.71.61.71a1.78,1.78,0,0,0,.59-.1v.65A2.16,2.16,0,0,1,614.53,61.16Z" fill="#70727a"/><rect x="450.55" y="67.44" width="166" height="1" fill="#dce2f5"/><path d="M247.24,326.31h-.18a18.81,18.81,0,0,1-10.41-4,29.39,29.39,0,0,1-10.93-18.8c-.82-5.55.19-10.58,2.85-14.17A16.21,16.21,0,0,1,236,284l.36.93a15.18,15.18,0,0,0-7,5c-2.51,3.37-3.46,8.14-2.67,13.42a28.34,28.34,0,0,0,10.54,18.15,17.85,17.85,0,0,0,9.83,3.76c3.4,0,5.45-1.44,5.68-4.1l1,.09C253.48,324.45,251.05,326.31,247.24,326.31Z" fill="#8a346b"/></g></g></svg>